<?xml version="1.0" encoding="UTF-8"?>
<!DOCTYPE svg PUBLIC "-//W3C//DTD SVG 1.1//EN" "http://www.w3.org/Graphics/SVG/1.1/DTD/svg11.dtd">
<!-- Creator: CorelDRAW X8 -->
<svg xmlns="http://www.w3.org/2000/svg" xml:space="preserve" width="2200px" height="387px" version="1.1" style="shape-rendering:geometricPrecision; text-rendering:geometricPrecision; image-rendering:optimizeQuality; fill-rule:evenodd; clip-rule:evenodd"
viewBox="0 0 1674 294"
 xmlns:xlink="http://www.w3.org/1999/xlink">
 <defs>
  <style type="text/css">
   <![CDATA[
    .str3 {stroke:black;stroke-width:2.42213}
    .str2 {stroke:black;stroke-width:4.84427}
    .str4 {stroke:black;stroke-width:7.2664}
    .str5 {stroke:black;stroke-width:9.68854}
    .str0 {stroke:black;stroke-width:12.1107}
    .str7 {stroke:black;stroke-width:24.2213}
    .str1 {stroke:black;stroke-width:8.47747}
    .str8 {stroke:black;stroke-width:0.484427}
    .str6 {stroke:black;stroke-width:2.90656}
    .fil0 {fill:none}
   ]]>
  </style>
 </defs>
 <g id="app">
  <metadata id="CorelCorpID_0Corel-Layer"/>
  <line class="fil0 str0" x1="1091" y1="159" x2="1332" y2= "159" />
  <line class="fil0 str0" x1="1031" y1="159" x2="1072" y2= "159" />
  <line class="fil0 str0" x1="955" y1="159" x2="1012" y2= "159" />
  <line class="fil0 str0" x1="920" y1="159" x2="936" y2= "159" />
  <line class="fil0 str1" x1="871" y1="91" x2="1072" y2= "91" />
  <polyline class="fil0 str1" points="1051,290 4,290 4,91 219,91 219,11 454,11 454,91 871,91 "/>
  <line class="fil0 str1" x1="310" y1="91" x2="421" y2= "91" />
  <line class="fil0 str1" x1="328" y1="87" x2="328" y2= "15" />
  <line class="fil0 str2" x1="253" y1="87" x2="253" y2= "15" />
  <line class="fil0 str3" x1="250" y1="50" x2="299" y2= "50" />
  <line class="fil0 str3" x1="315" y1="50" x2="327" y2= "50" />
  <line class="fil0 str3" x1="254" y1="32" x2="281" y2= "32" />
  <line class="fil0 str3" x1="246" y1="35" x2="252" y2= "35" />
  <line class="fil0 str3" x1="221" y1="35" x2="228" y2= "35" />
  <line class="fil0 str4" x1="221" y1="66" x2="226" y2= "66" />
  <line class="fil0 str3" x1="293" y1="51" x2="293" y2= "91" />
  <line class="fil0 str3" x1="80" y1="95" x2="80" y2= "115" />
  <line class="fil0 str3" x1="220" y1="95" x2="220" y2= "115" />
  <line class="fil0 str3" x1="80" y1="133" x2="80" y2= "167" />
  <line class="fil0 str3" x1="80" y1="186" x2="80" y2= "287" />
  <line class="fil0 str3" x1="118" y1="189" x2="118" y2= "287" />
  <line class="fil0 str3" x1="220" y1="132" x2="220" y2= "157" />
  <line class="fil0 str3" x1="281" y1="15" x2="281" y2= "18" />
  <line class="fil0 str3" x1="281" y1="30" x2="281" y2= "37" />
  <line class="fil0 str3" x1="281" y1="47" x2="281" y2= "50" />
  <line class="fil0 str1" x1="277" y1="91" x2="294" y2= "91" />
  <line class="fil0 str1" x1="240" y1="91" x2="262" y2= "91" />
  <line class="fil0 str2" x1="1103" y1="92" x2="1206" y2= "92" />
  <line class="fil0 str2" x1="1301" y1="92" x2="1332" y2= "92" />
  <line class="fil0 str2" x1="1279" y1="92" x2="1288" y2= "92" />
  <polyline class="fil0 str2" points="1266,92 1255,92 1255,17 "/>
  <line class="fil0 str2" x1="1055" y1="92" x2="1086" y2= "92" />
  <line class="fil0 str0" x1="897" y1="159" x2="806" y2= "159" />
  <line class="fil0 str0" x1="599" y1="159" x2="787" y2= "159" />
  <line class="fil0 str0" x1="529" y1="159" x2="502" y2= "159" />
  <line class="fil0 str0" x1="580" y1="159" x2="547" y2= "159" />
  <line class="fil0 str0" x1="484" y1="159" x2="330" y2= "159" />
  <line class="fil0 str0" x1="237" y1="159" x2="218" y2= "159" />
  <line class="fil0 str0" x1="302" y1="159" x2="254" y2= "159" />
  <line class="fil0 str0" x1="201" y1="159" x2="109" y2= "159" />
  <line class="fil0 str0" x1="82" y1="159" x2="8" y2= "159" />
  <line class="fil0 str1" x1="1674" y1="290" x2="1051" y2= "290" />
  <line class="fil0 str5" x1="1671" y1="91" x2="1364" y2= "91" />
  <line class="fil0 str1" x1="1342" y1="90" x2="1330" y2= "90" />
  <line class="fil0 str0" x1="1350" y1="159" x2="1402" y2= "159" />
  <line class="fil0 str0" x1="1668" y1="290" x2="1668" y2= "86" />
  <line class="fil0 str0" x1="1421" y1="159" x2="1445" y2= "159" />
  <line class="fil0 str1" x1="1445" y1="288" x2="1445" y2= "135" />
  <line class="fil0 str1" x1="1445" y1="91" x2="1445" y2= "108" />
  <line class="fil0 str6" x1="1068" y1="286" x2="1068" y2= "165" />
  <path class="fil0 str6" d="M1237 288l0 -63m0 -18l0 -42"/>
  <path class="fil0 str6" d="M993 288l0 -79m0 -18l0 -26"/>
  <line class="fil0 str6" x1="1293" y1="286" x2="1293" y2= "165" />
  <line class="fil0 str6" x1="1368" y1="286" x2="1368" y2= "197" />
  <line class="fil0 str6" x1="1368" y1="179" x2="1368" y2= "161" />
  <line class="fil0 str6" x1="1555" y1="288" x2="1555" y2= "132" />
  <line class="fil0 str6" x1="1555" y1="115" x2="1555" y2= "91" />
  <line class="fil0 str1" x1="921" y1="136" x2="921" y2= "290" />
  <line class="fil0 str1" x1="921" y1="94" x2="921" y2= "107" />
  <line class="fil0 str7" x1="686" y1="135" x2="686" y2= "291" />
  <line class="fil0 str7" x1="686" y1="87" x2="686" y2= "108" />
  <line class="fil0 str6" x1="454" y1="164" x2="454" y2= "288" />
  <line class="fil0 str6" x1="622" y1="187" x2="622" y2= "290" />
  <line class="fil0 str6" x1="622" y1="163" x2="622" y2= "168" />
  <line class="fil0 str6" x1="843" y1="193" x2="843" y2= "290" />
  <line class="fil0 str6" x1="510" y1="162" x2="510" y2= "290" />
  <line class="fil0 str6" x1="566" y1="162" x2="566" y2= "290" />
  <line class="fil0 str4" x1="229" y1="164" x2="229" y2= "290" />
  <line class="fil0 str6" x1="843" y1="165" x2="843" y2= "175" />
  <line class="fil0 str6" x1="360" y1="165" x2="360" y2= "290" />
  <line class="fil0 str6" x1="285" y1="165" x2="285" y2= "290" />
  <line class="fil0 str6" x1="174" y1="165" x2="174" y2= "290" />
  <polyline class="fil0 str4" points="1075,94 1075,41 1315,4 1328,93 "/>
  <line class="fil0 str4" x1="1111" y1="37" x2="1111" y2= "90" />
  <polyline class="fil0 str3" points="1324,43 1374,43 1374,86 "/>
  <g id="_694036696">
   <rect class="fil0 str8" x="365" y="16" width="5.537" height="26.4546"/>
   <rect class="fil0 str8" x="398" y="16" width="5.537" height="26.4546"/>
   <rect class="fil0 str8" x="376" y="16" width="5.537" height="26.4546"/>
   <rect class="fil0 str8" x="409" y="16" width="5.537" height="26.4546"/>
   <rect class="fil0 str8" x="387" y="16" width="5.537" height="26.4546"/>
   <rect class="fil0 str8" x="371" y="16" width="5.537" height="26.4546"/>
   <rect class="fil0 str8" x="404" y="16" width="5.537" height="26.4546"/>
   <rect class="fil0 str8" x="382" y="16" width="5.537" height="26.4546"/>
   <rect class="fil0 str8" x="415" y="16" width="5.537" height="26.4546"/>
   <rect class="fil0 str8" x="393" y="16" width="5.537" height="26.4546"/>
  </g>
  <g id="_694038352">
   <rect class="fil0 str8" x="365" y="59" width="5.537" height="26.4546"/>
   <rect class="fil0 str8" x="398" y="59" width="5.537" height="26.4546"/>
   <rect class="fil0 str8" x="376" y="59" width="5.537" height="26.4546"/>
   <rect class="fil0 str8" x="409" y="59" width="5.537" height="26.4546"/>
   <rect class="fil0 str8" x="387" y="59" width="5.537" height="26.4546"/>
   <rect class="fil0 str8" x="371" y="59" width="5.537" height="26.4546"/>
   <rect class="fil0 str8" x="404" y="59" width="5.537" height="26.4546"/>
   <rect class="fil0 str8" x="382" y="59" width="5.537" height="26.4546"/>
   <rect class="fil0 str8" x="415" y="59" width="5.537" height="26.4546"/>
   <rect class="fil0 str8" x="393" y="59" width="5.537" height="26.4546"/>
  </g>
  <g id="_694041856">
   <rect class="fil0 str8" x="1144" y="64" width="5.537" height="25.6901"/>
   <rect class="fil0 str8" x="1178" y="64" width="5.537" height="25.6901"/>
   <rect class="fil0 str8" x="1156" y="64" width="5.537" height="25.6901"/>
   <rect class="fil0 str8" x="1189" y="64" width="5.537" height="25.6901"/>
   <rect class="fil0 str8" x="1167" y="64" width="5.537" height="25.6901"/>
   <rect class="fil0 str8" x="1200" y="64" width="5.537" height="25.6901"/>
   <rect class="fil0 str8" x="1150" y="64" width="5.537" height="25.6901"/>
   <rect class="fil0 str8" x="1183" y="64" width="5.537" height="25.6901"/>
   <rect class="fil0 str8" x="1161" y="64" width="5.537" height="25.6901"/>
   <rect class="fil0 str8" x="1194" y="64" width="5.537" height="25.6901"/>
   <rect class="fil0 str8" x="1172" y="64" width="5.537" height="25.6901"/>
  </g>
  <g id="_694044400">
   <rect class="fil0 str8" transform="matrix(1 -0.150344 -0 0.971104 1144.46 34.7915)" width="5.537" height="26.4546"/>
   <rect class="fil0 str8" transform="matrix(1 -0.150344 -0 0.971104 1177.68 29.7968)" width="5.537" height="26.4546"/>
   <rect class="fil0 str8" transform="matrix(1 -0.150344 -0 0.971104 1155.54 33.1266)" width="5.537" height="26.4546"/>
   <rect class="fil0 str8" transform="matrix(1 -0.150344 -0 0.971104 1188.76 28.1319)" width="5.537" height="26.4546"/>
   <rect class="fil0 str8" transform="matrix(1 -0.150344 -0 0.971104 1166.61 31.4617)" width="5.537" height="26.4546"/>
   <rect class="fil0 str8" transform="matrix(1 -0.150344 -0 0.971104 1199.83 26.467)" width="5.537" height="26.4546"/>
   <rect class="fil0 str8" transform="matrix(1 -0.150344 -0 0.971104 1150 33.9591)" width="5.537" height="26.4546"/>
   <rect class="fil0 str8" transform="matrix(1 -0.150344 -0 0.971104 1183.22 28.9643)" width="5.537" height="26.4546"/>
   <rect class="fil0 str8" transform="matrix(1 -0.150344 -0 0.971104 1161.07 32.2942)" width="5.537" height="26.4546"/>
   <rect class="fil0 str8" transform="matrix(1 -0.150344 -0 0.971104 1194.3 27.2994)" width="5.537" height="26.4546"/>
   <rect class="fil0 str8" transform="matrix(1 -0.150344 -0 0.971104 1172.15 30.6293)" width="5.537" height="26.4546"/>
  </g>
  <polyline class="fil0 str2" points="1264,92 1255,92 1255,17 "/>
  <line class="fil0 str3" x1="1281" y1="32" x2="1281" y2= "91" />
  <line class="fil0 str3" x1="1300" y1="32" x2="1300" y2= "61" />
  <line class="fil0 str3" x1="1302" y1="62" x2="1302" y2= "76" />
  <line class="fil0 str3" x1="1281" y1="61" x2="1320" y2= "61" />
  <line class="fil0 str3" x1="1255" y1="51" x2="1266" y2= "51" />
  <line class="fil0 str3" x1="1279" y1="32" x2="1286" y2= "32" />
  <line class="fil0 str3" x1="1298" y1="32" x2="1302" y2= "32" />
  <line class="fil0 str3" x1="1449" y1="139" x2="1486" y2= "139" />
  <line class="fil0 str3" x1="1503" y1="139" x2="1554" y2= "139" />
  <polyline class="fil0 str3" points="674,140 623,140 623,142 "/>
  <line class="fil0 str3" x1="622" y1="191" x2="591" y2= "191" />
  <line class="fil0 str3" x1="572" y1="191" x2="554" y2= "191" />
  <line class="fil0 str3" x1="535" y1="191" x2="511" y2= "191" />
  <line class="fil0 str3" x1="80" y1="189" x2="85" y2= "189" />
  <line class="fil0 str3" x1="104" y1="189" x2="119" y2= "189" />
  <polyline class="fil0 str3" points="173,189 135,189 135,186 "/>
  <line class="fil0 str3" x1="135" y1="168" x2="135" y2= "165" />
 </g>
</svg>
