<?xml version="1.0" encoding="UTF-8"?>
<!DOCTYPE svg PUBLIC "-//W3C//DTD SVG 1.1//EN" "http://www.w3.org/Graphics/SVG/1.1/DTD/svg11.dtd">
<!-- Creator: CorelDRAW X8 -->
<svg xmlns="http://www.w3.org/2000/svg" xml:space="preserve" width="2200px" height="493px" version="1.1" style="shape-rendering:geometricPrecision; text-rendering:geometricPrecision; image-rendering:optimizeQuality; fill-rule:evenodd; clip-rule:evenodd"
viewBox="0 0 1674 375"
 xmlns:xlink="http://www.w3.org/1999/xlink">
 <defs>
  <style type="text/css">
   <![CDATA[
    .str2 {stroke:black;stroke-width:2.42213}
    .str4 {stroke:black;stroke-width:4.84427}
    .str3 {stroke:black;stroke-width:7.2664}
    .str5 {stroke:black;stroke-width:9.68854}
    .str0 {stroke:black;stroke-width:12.1107}
    .str6 {stroke:black;stroke-width:16.9549}
    .str8 {stroke:black;stroke-width:24.2213}
    .str11 {stroke:black;stroke-width:6.05534}
    .str1 {stroke:black;stroke-width:8.47747}
    .str9 {stroke:black;stroke-width:0.484427}
    .str7 {stroke:black;stroke-width:2.90656}
    .str10 {stroke:black;stroke-width:0.184567}
    .fil0 {fill:none}
    .fil1 {fill:#2B2A29}
   ]]>
  </style>
 </defs>
 <g id="app">
  <metadata id="CorelCorpID_0Corel-Layer"/>
  <line class="fil0 str0" x1="1174" y1="159" x2="1190" y2= "159" />
  <line class="fil0 str0" x1="966" y1="159" x2="1134" y2= "159" />
  <line class="fil0 str1" x1="871" y1="91" x2="1072" y2= "91" />
  <polyline class="fil0 str1" points="1051,290 4,290 4,91 219,91 219,11 454,11 454,91 871,91 "/>
  <line class="fil0 str1" x1="310" y1="91" x2="421" y2= "91" />
  <line class="fil0 str1" x1="328" y1="87" x2="328" y2= "15" />
  <line class="fil0 str2" x1="250" y1="87" x2="250" y2= "15" />
  <line class="fil0 str2" x1="260" y1="51" x2="260" y2= "15" />
  <line class="fil0 str2" x1="250" y1="50" x2="296" y2= "50" />
  <line class="fil0 str2" x1="310" y1="50" x2="327" y2= "50" />
  <line class="fil0 str2" x1="261" y1="32" x2="288" y2= "32" />
  <line class="fil0 str2" x1="243" y1="35" x2="250" y2= "35" />
  <line class="fil0 str3" x1="244" y1="66" x2="250" y2= "66" />
  <line class="fil0 str2" x1="221" y1="35" x2="228" y2= "35" />
  <line class="fil0 str3" x1="221" y1="66" x2="231" y2= "66" />
  <line class="fil0 str2" x1="293" y1="51" x2="293" y2= "91" />
  <line class="fil0 str2" x1="80" y1="95" x2="80" y2= "135" />
  <line class="fil0 str2" x1="288" y1="15" x2="288" y2= "18" />
  <line class="fil0 str2" x1="288" y1="29" x2="288" y2= "34" />
  <line class="fil0 str2" x1="288" y1="45" x2="288" y2= "50" />
  <line class="fil0 str1" x1="277" y1="91" x2="294" y2= "91" />
  <line class="fil0 str1" x1="240" y1="91" x2="262" y2= "91" />
  <line class="fil0 str4" x1="1103" y1="92" x2="1206" y2= "92" />
  <line class="fil0 str4" x1="1303" y1="92" x2="1332" y2= "92" />
  <polyline class="fil0 str4" points="1288,92 1255,92 1255,17 "/>
  <line class="fil0 str4" x1="1055" y1="92" x2="1086" y2= "92" />
  <line class="fil0 str0" x1="949" y1="159" x2="917" y2= "159" />
  <line class="fil0 str0" x1="899" y1="159" x2="842" y2= "159" />
  <line class="fil0 str0" x1="825" y1="159" x2="806" y2= "159" />
  <line class="fil0 str0" x1="789" y1="159" x2="645" y2= "159" />
  <line class="fil0 str0" x1="628" y1="159" x2="503" y2= "159" />
  <line class="fil0 str0" x1="421" y1="159" x2="486" y2= "159" />
  <line class="fil0 str0" x1="253" y1="159" x2="405" y2= "159" />
  <line class="fil0 str0" x1="237" y1="159" x2="216" y2= "159" />
  <line class="fil0 str0" x1="200" y1="159" x2="111" y2= "159" />
  <line class="fil0 str0" x1="94" y1="159" x2="3" y2= "159" />
  <line class="fil0 str5" x1="1674" y1="290" x2="1310" y2= "290" />
  <line class="fil0 str5" x1="1671" y1="91" x2="1364" y2= "91" />
  <line class="fil0 str1" x1="1342" y1="90" x2="1330" y2= "90" />
  <line class="fil0 str0" x1="1230" y1="159" x2="1402" y2= "159" />
  <line class="fil0 str0" x1="1668" y1="290" x2="1668" y2= "86" />
  <line class="fil0 str0" x1="1420" y1="159" x2="1450" y2= "159" />
  <line class="fil0 str1" x1="1445" y1="108" x2="1445" y2= "95" />
  <line class="fil0 str6" x1="1442" y1="290" x2="1442" y2= "252" />
  <line class="fil0 str6" x1="1442" y1="234" x2="1442" y2= "163" />
  <line class="fil0 str1" x1="1445" y1="159" x2="1445" y2= "134" />
  <line class="fil0 str7" x1="1309" y1="292" x2="1309" y2= "270" />
  <line class="fil0 str7" x1="1239" y1="345" x2="1239" y2= "258" />
  <line class="fil0 str7" x1="1180" y1="345" x2="1180" y2= "258" />
  <line class="fil0 str7" x1="1123" y1="345" x2="1123" y2= "258" />
  <line class="fil0 str7" x1="1239" y1="241" x2="1239" y2= "237" />
  <line class="fil0 str7" x1="1180" y1="241" x2="1180" y2= "237" />
  <line class="fil0 str7" x1="1123" y1="241" x2="1123" y2= "237" />
  <line class="fil0 str7" x1="1309" y1="253" x2="1309" y2= "165" />
  <line class="fil0 str7" x1="1275" y1="200" x2="1275" y2= "165" />
  <line class="fil0 str7" x1="1113" y1="200" x2="1113" y2= "165" />
  <line class="fil0 str7" x1="1053" y1="189" x2="1053" y2= "165" />
  <line class="fil0 str7" x1="1275" y1="217" x2="1275" y2= "236" />
  <line class="fil0 str7" x1="1113" y1="217" x2="1113" y2= "236" />
  <line class="fil0 str7" x1="994" y1="286" x2="994" y2= "165" />
  <line class="fil0 str1" x1="921" y1="136" x2="921" y2= "290" />
  <line class="fil0 str1" x1="921" y1="94" x2="921" y2= "107" />
  <line class="fil0 str8" x1="686" y1="141" x2="686" y2= "291" />
  <line class="fil0 str8" x1="686" y1="87" x2="686" y2= "108" />
  <line class="fil0 str7" x1="863" y1="165" x2="863" y2= "290" />
  <line class="fil0 str7" x1="807" y1="231" x2="807" y2= "292" />
  <line class="fil0 str7" x1="807" y1="163" x2="807" y2= "175" />
  <polyline class="fil0 str7" points="780,195 807,195 807,211 863,211 "/>
  <line class="fil0 str7" x1="509" y1="190" x2="509" y2= "290" />
  <line class="fil0 str7" x1="398" y1="190" x2="398" y2= "290" />
  <line class="fil0 str7" x1="286" y1="198" x2="286" y2= "290" />
  <line class="fil0 str7" x1="172" y1="198" x2="172" y2= "290" />
  <polyline class="fil0 str7" points="114,193 114,198 98,198 98,288 "/>
  <line class="fil0 str7" x1="603" y1="227" x2="603" y2= "290" />
  <line class="fil0 str7" x1="454" y1="164" x2="454" y2= "290" />
  <line class="fil0 str3" x1="229" y1="197" x2="229" y2= "290" />
  <line class="fil0 str3" x1="229" y1="162" x2="229" y2= "181" />
  <line class="fil0 str7" x1="781" y1="165" x2="781" y2= "173" />
  <line class="fil0 str7" x1="509" y1="165" x2="509" y2= "175" />
  <line class="fil0 str7" x1="398" y1="165" x2="398" y2= "175" />
  <line class="fil0 str7" x1="286" y1="165" x2="286" y2= "182" />
  <line class="fil0 str7" x1="172" y1="165" x2="172" y2= "182" />
  <line class="fil0 str7" x1="114" y1="165" x2="114" y2= "176" />
  <line class="fil0 str7" x1="603" y1="165" x2="603" y2= "211" />
  <polyline class="fil0 str7" points="1081,237 1052,237 1052,291 "/>
  <polyline class="fil0 str3" points="1075,94 1075,41 1315,4 1328,93 "/>
  <line class="fil0 str3" x1="1111" y1="37" x2="1111" y2= "90" />
  <line class="fil0 str3" x1="1255" y1="50" x2="1261" y2= "50" />
  <line class="fil0 str3" x1="1277" y1="50" x2="1320" y2= "50" />
  <line class="fil0 str2" x1="1290" y1="29" x2="1317" y2= "29" />
  <polyline class="fil0 str2" points="1324,43 1374,43 1374,86 "/>
  <g id="_705703672">
   <rect class="fil0 str9" x="365" y="16" width="5.537" height="26.4546"/>
   <rect class="fil0 str9" x="398" y="16" width="5.537" height="26.4546"/>
   <rect class="fil0 str9" x="376" y="16" width="5.537" height="26.4546"/>
   <rect class="fil0 str9" x="409" y="16" width="5.537" height="26.4546"/>
   <rect class="fil0 str9" x="387" y="16" width="5.537" height="26.4546"/>
   <rect class="fil0 str9" x="371" y="16" width="5.537" height="26.4546"/>
   <rect class="fil0 str9" x="404" y="16" width="5.537" height="26.4546"/>
   <rect class="fil0 str9" x="382" y="16" width="5.537" height="26.4546"/>
   <rect class="fil0 str9" x="415" y="16" width="5.537" height="26.4546"/>
   <rect class="fil0 str9" x="393" y="16" width="5.537" height="26.4546"/>
  </g>
  <g id="_705707200">
   <rect class="fil0 str9" x="365" y="59" width="5.537" height="26.4546"/>
   <rect class="fil0 str9" x="398" y="59" width="5.537" height="26.4546"/>
   <rect class="fil0 str9" x="376" y="59" width="5.537" height="26.4546"/>
   <rect class="fil0 str9" x="409" y="59" width="5.537" height="26.4546"/>
   <rect class="fil0 str9" x="387" y="59" width="5.537" height="26.4546"/>
   <rect class="fil0 str9" x="371" y="59" width="5.537" height="26.4546"/>
   <rect class="fil0 str9" x="404" y="59" width="5.537" height="26.4546"/>
   <rect class="fil0 str9" x="382" y="59" width="5.537" height="26.4546"/>
   <rect class="fil0 str9" x="415" y="59" width="5.537" height="26.4546"/>
   <rect class="fil0 str9" x="393" y="59" width="5.537" height="26.4546"/>
  </g>
  <g id="_705709432">
   <rect class="fil0 str9" x="1144" y="64" width="5.537" height="25.6901"/>
   <rect class="fil0 str9" x="1178" y="64" width="5.537" height="25.6901"/>
   <rect class="fil0 str9" x="1156" y="64" width="5.537" height="25.6901"/>
   <rect class="fil0 str9" x="1189" y="64" width="5.537" height="25.6901"/>
   <rect class="fil0 str9" x="1167" y="64" width="5.537" height="25.6901"/>
   <rect class="fil0 str9" x="1200" y="64" width="5.537" height="25.6901"/>
   <rect class="fil0 str9" x="1150" y="64" width="5.537" height="25.6901"/>
   <rect class="fil0 str9" x="1183" y="64" width="5.537" height="25.6901"/>
   <rect class="fil0 str9" x="1161" y="64" width="5.537" height="25.6901"/>
   <rect class="fil0 str9" x="1194" y="64" width="5.537" height="25.6901"/>
   <rect class="fil0 str9" x="1172" y="64" width="5.537" height="25.6901"/>
  </g>
  <g id="_705712360">
   <rect class="fil0 str9" transform="matrix(1 -0.150344 -0 0.971104 1144.46 34.7915)" width="5.537" height="26.4546"/>
   <rect class="fil0 str9" transform="matrix(1 -0.150344 -0 0.971104 1177.68 29.7968)" width="5.537" height="26.4546"/>
   <rect class="fil0 str9" transform="matrix(1 -0.150344 -0 0.971104 1155.54 33.1266)" width="5.537" height="26.4546"/>
   <rect class="fil0 str9" transform="matrix(1 -0.150344 -0 0.971104 1188.76 28.1319)" width="5.537" height="26.4546"/>
   <rect class="fil0 str9" transform="matrix(1 -0.150344 -0 0.971104 1166.61 31.4617)" width="5.537" height="26.4546"/>
   <rect class="fil0 str9" transform="matrix(1 -0.150344 -0 0.971104 1199.83 26.467)" width="5.537" height="26.4546"/>
   <rect class="fil0 str9" transform="matrix(1 -0.150344 -0 0.971104 1150 33.9591)" width="5.537" height="26.4546"/>
   <rect class="fil0 str9" transform="matrix(1 -0.150344 -0 0.971104 1183.22 28.9643)" width="5.537" height="26.4546"/>
   <rect class="fil0 str9" transform="matrix(1 -0.150344 -0 0.971104 1161.07 32.2942)" width="5.537" height="26.4546"/>
   <rect class="fil0 str9" transform="matrix(1 -0.150344 -0 0.971104 1194.3 27.2994)" width="5.537" height="26.4546"/>
   <rect class="fil0 str9" transform="matrix(1 -0.150344 -0 0.971104 1172.15 30.6293)" width="5.537" height="26.4546"/>
  </g>
  <line class="fil0 str7" x1="1097" y1="237" x2="1152" y2= "237" />
  <line class="fil0 str7" x1="1168" y1="237" x2="1194" y2= "237" />
  <line class="fil0 str7" x1="1211" y1="237" x2="1254" y2= "237" />
  <line class="fil0 str7" x1="1271" y1="237" x2="1309" y2= "237" />
  <line class="fil0 str4" x1="1055" y1="346" x2="1309" y2= "346" />
  <line class="fil0 str3" x1="1311" y1="290" x2="1311" y2= "375" />
  <line class="fil0 str3" x1="1051" y1="288" x2="1051" y2= "375" />
  <rect class="fil1 str10" x="1122" y="288" width="5.537" height="19.277"/>
  <rect class="fil1 str10" x="1178" y="288" width="5.537" height="19.277"/>
  <rect class="fil1 str10" x="1234" y="288" width="5.537" height="19.277"/>
  <line class="fil0 str11" x1="1122" y1="369" x2="1127" y2= "369" />
  <line class="fil0 str11" x1="1178" y1="369" x2="1183" y2= "369" />
  <line class="fil0 str11" x1="1234" y1="369" x2="1239" y2= "369" />
 </g>
</svg>
