<?xml version="1.0" encoding="UTF-8"?>
<!DOCTYPE svg PUBLIC "-//W3C//DTD SVG 1.1//EN" "http://www.w3.org/Graphics/SVG/1.1/DTD/svg11.dtd">
<!-- Creator: CorelDRAW X8 -->
<svg xmlns="http://www.w3.org/2000/svg" xml:space="preserve" width="2200px" height="387px" version="1.1" style="shape-rendering:geometricPrecision; text-rendering:geometricPrecision; image-rendering:optimizeQuality; fill-rule:evenodd; clip-rule:evenodd"
viewBox="0 0 1674 294"
 xmlns:xlink="http://www.w3.org/1999/xlink">
 <defs>
  <style type="text/css">
   <![CDATA[
    .str2 {stroke:black;stroke-width:2.42213}
    .str4 {stroke:black;stroke-width:4.84427}
    .str3 {stroke:black;stroke-width:7.2664}
    .str5 {stroke:black;stroke-width:9.68854}
    .str0 {stroke:black;stroke-width:12.1107}
    .str7 {stroke:black;stroke-width:24.2213}
    .str1 {stroke:black;stroke-width:8.47747}
    .str8 {stroke:black;stroke-width:0.484427}
    .str6 {stroke:black;stroke-width:2.90656}
    .fil0 {fill:none}
   ]]>
  </style>
 </defs>
 <g id="app">
  <metadata id="CorelCorpID_0Corel-Layer"/>
  <line class="fil0 str0" x1="1147" y1="159" x2="1204" y2= "159" />
  <line class="fil0 str0" x1="1091" y1="159" x2="1130" y2= "159" />
  <line class="fil0 str0" x1="1035" y1="159" x2="1073" y2= "159" />
  <line class="fil0 str0" x1="964" y1="159" x2="1017" y2= "159" />
  <line class="fil0 str0" x1="920" y1="159" x2="946" y2= "159" />
  <line class="fil0 str1" x1="871" y1="91" x2="1072" y2= "91" />
  <polyline class="fil0 str1" points="1051,290 4,290 4,91 219,91 219,11 454,11 454,91 871,91 "/>
  <line class="fil0 str1" x1="310" y1="91" x2="421" y2= "91" />
  <line class="fil0 str1" x1="328" y1="87" x2="328" y2= "15" />
  <line class="fil0 str2" x1="250" y1="87" x2="250" y2= "15" />
  <line class="fil0 str2" x1="260" y1="51" x2="260" y2= "15" />
  <line class="fil0 str2" x1="250" y1="50" x2="296" y2= "50" />
  <line class="fil0 str2" x1="310" y1="50" x2="327" y2= "50" />
  <line class="fil0 str2" x1="261" y1="32" x2="288" y2= "32" />
  <line class="fil0 str2" x1="243" y1="35" x2="250" y2= "35" />
  <line class="fil0 str3" x1="244" y1="66" x2="250" y2= "66" />
  <line class="fil0 str2" x1="221" y1="35" x2="228" y2= "35" />
  <line class="fil0 str3" x1="221" y1="66" x2="231" y2= "66" />
  <line class="fil0 str2" x1="293" y1="51" x2="293" y2= "91" />
  <line class="fil0 str2" x1="80" y1="95" x2="80" y2= "119" />
  <line class="fil0 str2" x1="192" y1="95" x2="192" y2= "111" />
  <line class="fil0 str2" x1="1374" y1="95" x2="1374" y2= "114" />
  <line class="fil0 str2" x1="80" y1="133" x2="80" y2= "157" />
  <line class="fil0 str2" x1="192" y1="140" x2="192" y2= "157" />
  <line class="fil0 str2" x1="1374" y1="133" x2="1374" y2= "157" />
  <line class="fil0 str2" x1="288" y1="15" x2="288" y2= "18" />
  <line class="fil0 str2" x1="288" y1="29" x2="288" y2= "34" />
  <line class="fil0 str2" x1="288" y1="45" x2="288" y2= "50" />
  <line class="fil0 str1" x1="277" y1="91" x2="294" y2= "91" />
  <line class="fil0 str1" x1="240" y1="91" x2="262" y2= "91" />
  <line class="fil0 str4" x1="1103" y1="92" x2="1206" y2= "92" />
  <line class="fil0 str4" x1="1301" y1="92" x2="1332" y2= "92" />
  <line class="fil0 str4" x1="1279" y1="92" x2="1288" y2= "92" />
  <polyline class="fil0 str4" points="1266,92 1255,92 1255,17 "/>
  <line class="fil0 str4" x1="1055" y1="92" x2="1086" y2= "92" />
  <line class="fil0 str0" x1="899" y1="159" x2="809" y2= "159" />
  <line class="fil0 str0" x1="559" y1="159" x2="792" y2= "159" />
  <line class="fil0 str0" x1="531" y1="159" x2="442" y2= "159" />
  <line class="fil0 str0" x1="424" y1="159" x2="335" y2= "159" />
  <line class="fil0 str0" x1="307" y1="159" x2="223" y2= "159" />
  <line class="fil0 str0" x1="203" y1="159" x2="110" y2= "159" />
  <line class="fil0 str0" x1="82" y1="159" x2="8" y2= "159" />
  <line class="fil0 str1" x1="1674" y1="290" x2="1051" y2= "290" />
  <line class="fil0 str5" x1="1671" y1="91" x2="1364" y2= "91" />
  <line class="fil0 str1" x1="1342" y1="90" x2="1330" y2= "90" />
  <line class="fil0 str0" x1="1350" y1="159" x2="1402" y2= "159" />
  <line class="fil0 str0" x1="1291" y1="159" x2="1333" y2= "159" />
  <line class="fil0 str0" x1="1222" y1="159" x2="1274" y2= "159" />
  <line class="fil0 str0" x1="1668" y1="290" x2="1668" y2= "86" />
  <line class="fil0 str0" x1="1420" y1="159" x2="1445" y2= "159" />
  <line class="fil0 str1" x1="1445" y1="288" x2="1445" y2= "137" />
  <line class="fil0 str1" x1="1445" y1="91" x2="1445" y2= "108" />
  <line class="fil0 str6" x1="994" y1="286" x2="994" y2= "165" />
  <line class="fil0 str6" x1="1051" y1="286" x2="1051" y2= "165" />
  <line class="fil0 str6" x1="1106" y1="286" x2="1106" y2= "165" />
  <line class="fil0 str6" x1="1181" y1="286" x2="1181" y2= "165" />
  <line class="fil0 str6" x1="1237" y1="286" x2="1237" y2= "165" />
  <line class="fil0 str6" x1="1312" y1="286" x2="1312" y2= "165" />
  <line class="fil0 str6" x1="1368" y1="286" x2="1368" y2= "165" />
  <line class="fil0 str6" x1="1499" y1="288" x2="1499" y2= "212" />
  <line class="fil0 str6" x1="1555" y1="288" x2="1555" y2= "210" />
  <line class="fil0 str6" x1="1555" y1="193" x2="1555" y2= "187" />
  <line class="fil0 str6" x1="1555" y1="170" x2="1555" y2= "91" />
  <line class="fil0 str1" x1="921" y1="136" x2="921" y2= "290" />
  <line class="fil0 str1" x1="921" y1="94" x2="921" y2= "107" />
  <line class="fil0 str7" x1="686" y1="141" x2="686" y2= "291" />
  <line class="fil0 str7" x1="686" y1="87" x2="686" y2= "108" />
  <line class="fil0 str6" x1="454" y1="189" x2="454" y2= "290" />
  <line class="fil0 str6" x1="585" y1="192" x2="585" y2= "290" />
  <line class="fil0 str6" x1="789" y1="183" x2="789" y2= "290" />
  <line class="fil0 str6" x1="845" y1="183" x2="845" y2= "290" />
  <line class="fil0 str6" x1="510" y1="197" x2="510" y2= "290" />
  <line class="fil0 str6" x1="155" y1="242" x2="155" y2= "290" />
  <polyline class="fil0 str6" points="119,195 119,201 98,201 98,288 "/>
  <line class="fil0 str3" x1="229" y1="197" x2="229" y2= "290" />
  <line class="fil0 str3" x1="229" y1="162" x2="229" y2= "181" />
  <line class="fil0 str6" x1="454" y1="165" x2="454" y2= "174" />
  <line class="fil0 str6" x1="585" y1="165" x2="585" y2= "177" />
  <line class="fil0 str6" x1="789" y1="165" x2="789" y2= "168" />
  <line class="fil0 str6" x1="845" y1="165" x2="845" y2= "168" />
  <line class="fil0 str6" x1="360" y1="165" x2="360" y2= "290" />
  <line class="fil0 str6" x1="155" y1="165" x2="155" y2= "225" />
  <line class="fil0 str6" x1="119" y1="165" x2="119" y2= "180" />
  <polyline class="fil0 str3" points="1075,94 1075,41 1315,4 1328,93 "/>
  <line class="fil0 str3" x1="1111" y1="37" x2="1111" y2= "90" />
  <polyline class="fil0 str2" points="1324,43 1374,43 1374,86 "/>
  <g id="_715195048">
   <rect class="fil0 str8" x="365" y="16" width="5.537" height="26.4546"/>
   <rect class="fil0 str8" x="398" y="16" width="5.537" height="26.4546"/>
   <rect class="fil0 str8" x="376" y="16" width="5.537" height="26.4546"/>
   <rect class="fil0 str8" x="409" y="16" width="5.537" height="26.4546"/>
   <rect class="fil0 str8" x="387" y="16" width="5.537" height="26.4546"/>
   <rect class="fil0 str8" x="371" y="16" width="5.537" height="26.4546"/>
   <rect class="fil0 str8" x="404" y="16" width="5.537" height="26.4546"/>
   <rect class="fil0 str8" x="382" y="16" width="5.537" height="26.4546"/>
   <rect class="fil0 str8" x="415" y="16" width="5.537" height="26.4546"/>
   <rect class="fil0 str8" x="393" y="16" width="5.537" height="26.4546"/>
  </g>
  <g id="_715198456">
   <rect class="fil0 str8" x="365" y="59" width="5.537" height="26.4546"/>
   <rect class="fil0 str8" x="398" y="59" width="5.537" height="26.4546"/>
   <rect class="fil0 str8" x="376" y="59" width="5.537" height="26.4546"/>
   <rect class="fil0 str8" x="409" y="59" width="5.537" height="26.4546"/>
   <rect class="fil0 str8" x="387" y="59" width="5.537" height="26.4546"/>
   <rect class="fil0 str8" x="371" y="59" width="5.537" height="26.4546"/>
   <rect class="fil0 str8" x="404" y="59" width="5.537" height="26.4546"/>
   <rect class="fil0 str8" x="382" y="59" width="5.537" height="26.4546"/>
   <rect class="fil0 str8" x="415" y="59" width="5.537" height="26.4546"/>
   <rect class="fil0 str8" x="393" y="59" width="5.537" height="26.4546"/>
  </g>
  <g id="_715200424">
   <rect class="fil0 str8" x="1144" y="64" width="5.537" height="25.6901"/>
   <rect class="fil0 str8" x="1178" y="64" width="5.537" height="25.6901"/>
   <rect class="fil0 str8" x="1156" y="64" width="5.537" height="25.6901"/>
   <rect class="fil0 str8" x="1189" y="64" width="5.537" height="25.6901"/>
   <rect class="fil0 str8" x="1167" y="64" width="5.537" height="25.6901"/>
   <rect class="fil0 str8" x="1200" y="64" width="5.537" height="25.6901"/>
   <rect class="fil0 str8" x="1150" y="64" width="5.537" height="25.6901"/>
   <rect class="fil0 str8" x="1183" y="64" width="5.537" height="25.6901"/>
   <rect class="fil0 str8" x="1161" y="64" width="5.537" height="25.6901"/>
   <rect class="fil0 str8" x="1194" y="64" width="5.537" height="25.6901"/>
   <rect class="fil0 str8" x="1172" y="64" width="5.537" height="25.6901"/>
  </g>
  <g id="_715202056">
   <rect class="fil0 str8" transform="matrix(1 -0.150344 -0 0.971104 1144.46 34.7915)" width="5.537" height="26.4546"/>
   <rect class="fil0 str8" transform="matrix(1 -0.150344 -0 0.971104 1177.68 29.7968)" width="5.537" height="26.4546"/>
   <rect class="fil0 str8" transform="matrix(1 -0.150344 -0 0.971104 1155.54 33.1266)" width="5.537" height="26.4546"/>
   <rect class="fil0 str8" transform="matrix(1 -0.150344 -0 0.971104 1188.76 28.1319)" width="5.537" height="26.4546"/>
   <rect class="fil0 str8" transform="matrix(1 -0.150344 -0 0.971104 1166.61 31.4617)" width="5.537" height="26.4546"/>
   <rect class="fil0 str8" transform="matrix(1 -0.150344 -0 0.971104 1199.83 26.467)" width="5.537" height="26.4546"/>
   <rect class="fil0 str8" transform="matrix(1 -0.150344 -0 0.971104 1150 33.9591)" width="5.537" height="26.4546"/>
   <rect class="fil0 str8" transform="matrix(1 -0.150344 -0 0.971104 1183.22 28.9643)" width="5.537" height="26.4546"/>
   <rect class="fil0 str8" transform="matrix(1 -0.150344 -0 0.971104 1161.07 32.2942)" width="5.537" height="26.4546"/>
   <rect class="fil0 str8" transform="matrix(1 -0.150344 -0 0.971104 1194.3 27.2994)" width="5.537" height="26.4546"/>
   <rect class="fil0 str8" transform="matrix(1 -0.150344 -0 0.971104 1172.15 30.6293)" width="5.537" height="26.4546"/>
  </g>
  <path class="fil0 str6" d="M98 201l-22 0 0 -6m0 -15l0 -15"/>
  <line class="fil0 str6" x1="113" y1="201" x2="156" y2= "201" />
  <line class="fil0 str2" x1="487" y1="196" x2="455" y2= "196" />
  <line class="fil0 str2" x1="584" y1="196" x2="536" y2= "196" />
  <line class="fil0 str2" x1="521" y1="196" x2="501" y2= "196" />
  <line class="fil0 str2" x1="789" y1="186" x2="817" y2= "186" />
  <line class="fil0 str2" x1="832" y1="186" x2="844" y2= "186" />
  <path class="fil0 str2" d="M1555 166l-56 0 0 -15m0 -17l0 -40"/>
  <line class="fil0 str2" x1="1555" y1="212" x2="1535" y2= "212" />
  <line class="fil0 str2" x1="1518" y1="212" x2="1482" y2= "212" />
  <line class="fil0 str2" x1="1465" y1="212" x2="1448" y2= "212" />
  <line class="fil0 str2" x1="1663" y1="190" x2="1555" y2= "190" />
  <polyline class="fil0 str4" points="1264,92 1255,92 1255,17 "/>
  <line class="fil0 str2" x1="1281" y1="32" x2="1281" y2= "91" />
  <line class="fil0 str2" x1="1300" y1="32" x2="1300" y2= "61" />
  <line class="fil0 str2" x1="1302" y1="62" x2="1302" y2= "76" />
  <line class="fil0 str2" x1="1281" y1="61" x2="1320" y2= "61" />
  <line class="fil0 str2" x1="1255" y1="56" x2="1266" y2= "56" />
  <line class="fil0 str2" x1="1255" y1="32" x2="1266" y2= "32" />
  <line class="fil0 str2" x1="1279" y1="32" x2="1286" y2= "32" />
  <line class="fil0 str2" x1="1298" y1="32" x2="1302" y2= "32" />
 </g>
</svg>
