<?xml version="1.0" encoding="UTF-8"?>
<!DOCTYPE svg PUBLIC "-//W3C//DTD SVG 1.1//EN" "http://www.w3.org/Graphics/SVG/1.1/DTD/svg11.dtd">
<!-- Creator: CorelDRAW X8 -->
<svg xmlns="http://www.w3.org/2000/svg" xml:space="preserve" width="2200px" height="878px" version="1.1" style="shape-rendering:geometricPrecision; text-rendering:geometricPrecision; image-rendering:optimizeQuality; fill-rule:evenodd; clip-rule:evenodd"
viewBox="0 0 1674 668"
 xmlns:xlink="http://www.w3.org/1999/xlink">
 <defs>
  <style type="text/css">
   <![CDATA[
    .str2 {stroke:black;stroke-width:2.42213}
    .str4 {stroke:black;stroke-width:4.84427}
    .str3 {stroke:black;stroke-width:7.2664}
    .str5 {stroke:black;stroke-width:9.68854}
    .str0 {stroke:black;stroke-width:12.1107}
    .str9 {stroke:black;stroke-width:3.6332}
    .str7 {stroke:black;stroke-width:24.2213}
    .str1 {stroke:black;stroke-width:8.47747}
    .str8 {stroke:black;stroke-width:0.484427}
    .str6 {stroke:black;stroke-width:2.90656}
    .fil0 {fill:none}
   ]]>
  </style>
 </defs>
 <g id="app">
  <metadata id="CorelCorpID_0Corel-Layer"/>
  <line class="fil0 str0" x1="1230" y1="511" x2="1285" y2= "511" />
  <line class="fil0 str0" x1="1176" y1="511" x2="1184" y2= "511" />
  <line class="fil0 str0" x1="1090" y1="511" x2="1129" y2= "511" />
  <line class="fil0 str0" x1="1034" y1="511" x2="1073" y2= "511" />
  <line class="fil0 str0" x1="916" y1="511" x2="1017" y2= "511" />
  <line class="fil0 str1" x1="919" y1="442" x2="1072" y2= "442" />
  <polyline class="fil0 str1" points="1148,642 4,642 4,442 219,442 219,363 454,363 454,442 871,442 871,410 "/>
  <line class="fil0 str1" x1="310" y1="442" x2="421" y2= "442" />
  <line class="fil0 str1" x1="328" y1="439" x2="328" y2= "366" />
  <line class="fil0 str2" x1="250" y1="439" x2="250" y2= "366" />
  <line class="fil0 str2" x1="260" y1="403" x2="260" y2= "366" />
  <line class="fil0 str2" x1="250" y1="402" x2="296" y2= "402" />
  <line class="fil0 str2" x1="310" y1="402" x2="327" y2= "402" />
  <line class="fil0 str2" x1="261" y1="383" x2="288" y2= "383" />
  <line class="fil0 str2" x1="243" y1="386" x2="250" y2= "386" />
  <line class="fil0 str3" x1="244" y1="418" x2="250" y2= "418" />
  <line class="fil0 str2" x1="221" y1="386" x2="228" y2= "386" />
  <line class="fil0 str3" x1="221" y1="418" x2="231" y2= "418" />
  <line class="fil0 str2" x1="293" y1="403" x2="293" y2= "442" />
  <line class="fil0 str2" x1="80" y1="446" x2="80" y2= "469" />
  <line class="fil0 str2" x1="566" y1="446" x2="566" y2= "469" />
  <line class="fil0 str2" x1="80" y1="484" x2="80" y2= "507" />
  <line class="fil0 str2" x1="566" y1="484" x2="566" y2= "507" />
  <line class="fil0 str2" x1="122" y1="516" x2="99" y2= "516" />
  <line class="fil0 str4" x1="225" y1="515" x2="214" y2= "515" />
  <line class="fil0 str2" x1="288" y1="366" x2="288" y2= "370" />
  <line class="fil0 str2" x1="288" y1="381" x2="288" y2= "386" />
  <line class="fil0 str2" x1="288" y1="397" x2="288" y2= "402" />
  <line class="fil0 str1" x1="277" y1="442" x2="294" y2= "442" />
  <line class="fil0 str1" x1="240" y1="442" x2="262" y2= "442" />
  <line class="fil0 str4" x1="1101" y1="444" x2="1206" y2= "444" />
  <line class="fil0 str4" x1="1307" y1="444" x2="1332" y2= "444" />
  <line class="fil0 str4" x1="1277" y1="444" x2="1294" y2= "444" />
  <polyline class="fil0 str4" points="1264,444 1255,444 1255,368 "/>
  <line class="fil0 str4" x1="1055" y1="444" x2="1084" y2= "444" />
  <line class="fil0 str0" x1="748" y1="511" x2="889" y2= "511" />
  <line class="fil0 str0" x1="558" y1="511" x2="730" y2= "511" />
  <line class="fil0 str0" x1="504" y1="511" x2="531" y2= "511" />
  <line class="fil0 str0" x1="424" y1="511" x2="489" y2= "511" />
  <line class="fil0 str0" x1="340" y1="511" x2="406" y2= "511" />
  <line class="fil0 str0" x1="260" y1="511" x2="321" y2= "511" />
  <line class="fil0 str0" x1="242" y1="511" x2="223" y2= "511" />
  <line class="fil0 str0" x1="197" y1="511" x2="108" y2= "511" />
  <line class="fil0 str0" x1="82" y1="511" x2="3" y2= "511" />
  <line class="fil0 str5" x1="1674" y1="642" x2="1215" y2= "642" />
  <line class="fil0 str5" x1="1671" y1="443" x2="1364" y2= "443" />
  <line class="fil0 str1" x1="1342" y1="442" x2="1330" y2= "442" />
  <line class="fil0 str0" x1="1303" y1="511" x2="1332" y2= "511" />
  <line class="fil0 str0" x1="1350" y1="511" x2="1402" y2= "511" />
  <line class="fil0 str0" x1="1668" y1="642" x2="1668" y2= "438" />
  <line class="fil0 str0" x1="1420" y1="511" x2="1454" y2= "511" />
  <line class="fil0 str6" x1="1447" y1="506" x2="1464" y2= "506" />
  <line class="fil0 str6" x1="1482" y1="506" x2="1663" y2= "506" />
  <line class="fil0 str6" x1="1498" y1="472" x2="1498" y2= "448" />
  <line class="fil0 str1" x1="1445" y1="459" x2="1445" y2= "447" />
  <line class="fil0 str1" x1="1445" y1="642" x2="1445" y2= "487" />
  <line class="fil0 str6" x1="1498" y1="506" x2="1498" y2= "490" />
  <line class="fil0 str6" x1="1386" y1="637" x2="1386" y2= "516" />
  <line class="fil0 str6" x1="1311" y1="637" x2="1311" y2= "516" />
  <line class="fil0 str6" x1="1256" y1="637" x2="1256" y2= "516" />
  <line class="fil0 str6" x1="1050" y1="637" x2="1050" y2= "516" />
  <line class="fil0 str6" x1="994" y1="637" x2="994" y2= "516" />
  <line class="fil0 str6" x1="1106" y1="599" x2="1106" y2= "516" />
  <line class="fil0 str6" x1="863" y1="539" x2="863" y2= "642" />
  <line class="fil0 str1" x1="921" y1="539" x2="921" y2= "642" />
  <line class="fil0 str7" x1="686" y1="581" x2="686" y2= "643" />
  <line class="fil0 str7" x1="686" y1="565" x2="686" y2= "444" />
  <line class="fil0 str1" x1="921" y1="490" x2="921" y2= "523" />
  <line class="fil0 str1" x1="921" y1="332" x2="921" y2= "460" />
  <line class="fil0 str6" x1="788" y1="539" x2="788" y2= "642" />
  <line class="fil0 str6" x1="454" y1="540" x2="454" y2= "642" />
  <line class="fil0 str6" x1="528" y1="516" x2="528" y2= "642" />
  <line class="fil0 str6" x1="379" y1="516" x2="379" y2= "642" />
  <line class="fil0 str6" x1="304" y1="516" x2="304" y2= "642" />
  <line class="fil0 str6" x1="117" y1="516" x2="117" y2= "642" />
  <line class="fil0 str3" x1="229" y1="516" x2="229" y2= "642" />
  <line class="fil0 str6" x1="1106" y1="642" x2="1106" y2= "618" />
  <line class="fil0 str4" x1="1147" y1="668" x2="1147" y2= "621" />
  <line class="fil0 str4" x1="1214" y1="668" x2="1214" y2= "621" />
  <line class="fil0 str4" x1="1181" y1="651" x2="1181" y2= "640" />
  <line class="fil0 str4" x1="1181" y1="664" x2="1181" y2= "659" />
  <line class="fil0 str6" x1="863" y1="516" x2="863" y2= "523" />
  <line class="fil0 str6" x1="860" y1="445" x2="860" y2= "466" />
  <line class="fil0 str6" x1="860" y1="481" x2="860" y2= "509" />
  <line class="fil0 str6" x1="788" y1="516" x2="788" y2= "523" />
  <line class="fil0 str6" x1="454" y1="516" x2="454" y2= "524" />
  <line class="fil0 str6" x1="1051" y1="595" x2="1105" y2= "595" />
  <line class="fil0 str2" x1="1168" y1="621" x2="1193" y2= "621" />
  <line class="fil0 str2" x1="1168" y1="665" x2="1193" y2= "665" />
  <line class="fil0 str6" x1="923" y1="575" x2="948" y2= "575" />
  <line class="fil0 str6" x1="863" y1="550" x2="887" y2= "550" />
  <line class="fil0 str6" x1="964" y1="575" x2="994" y2= "575" />
  <line class="fil0 str6" x1="904" y1="550" x2="920" y2= "550" />
  <polyline class="fil0 str3" points="1075,445 1075,392 1315,356 1328,445 "/>
  <line class="fil0 str3" x1="1111" y1="388" x2="1111" y2= "442" />
  <line class="fil0 str2" x1="1281" y1="384" x2="1281" y2= "442" />
  <line class="fil0 str2" x1="1300" y1="384" x2="1300" y2= "413" />
  <line class="fil0 str2" x1="1302" y1="414" x2="1302" y2= "428" />
  <line class="fil0 str2" x1="1281" y1="413" x2="1320" y2= "413" />
  <line class="fil0 str2" x1="1255" y1="408" x2="1266" y2= "408" />
  <line class="fil0 str2" x1="1255" y1="384" x2="1266" y2= "384" />
  <line class="fil0 str2" x1="1279" y1="384" x2="1286" y2= "384" />
  <line class="fil0 str2" x1="1298" y1="384" x2="1302" y2= "384" />
  <polyline class="fil0 str2" points="1324,395 1374,395 1374,438 "/>
  <g id="_747231256">
   <rect class="fil0 str8" x="365" y="368" width="5.537" height="26.4546"/>
   <rect class="fil0 str8" x="398" y="368" width="5.537" height="26.4546"/>
   <rect class="fil0 str8" x="376" y="368" width="5.537" height="26.4546"/>
   <rect class="fil0 str8" x="409" y="368" width="5.537" height="26.4546"/>
   <rect class="fil0 str8" x="387" y="368" width="5.537" height="26.4546"/>
   <rect class="fil0 str8" x="371" y="368" width="5.537" height="26.4546"/>
   <rect class="fil0 str8" x="404" y="368" width="5.537" height="26.4546"/>
   <rect class="fil0 str8" x="382" y="368" width="5.537" height="26.4546"/>
   <rect class="fil0 str8" x="415" y="368" width="5.537" height="26.4546"/>
   <rect class="fil0 str8" x="393" y="368" width="5.537" height="26.4546"/>
  </g>
  <g id="_747203656">
   <rect class="fil0 str8" x="693" y="13" width="5.537" height="22.8146"/>
   <rect class="fil0 str8" x="727" y="13" width="5.537" height="22.8146"/>
   <rect class="fil0 str8" x="749" y="13" width="5.537" height="22.8146"/>
   <rect class="fil0 str8" x="704" y="13" width="5.537" height="22.8146"/>
   <rect class="fil0 str8" x="738" y="13" width="5.537" height="22.8146"/>
   <rect class="fil0 str8" x="760" y="13" width="5.537" height="22.8146"/>
   <rect class="fil0 str8" x="716" y="13" width="5.537" height="22.8146"/>
   <rect class="fil0 str8" x="699" y="13" width="5.537" height="22.8146"/>
   <rect class="fil0 str8" x="732" y="13" width="5.537" height="22.8146"/>
   <rect class="fil0 str8" x="754" y="13" width="5.537" height="22.8146"/>
   <rect class="fil0 str8" x="710" y="13" width="5.537" height="22.8146"/>
   <rect class="fil0 str8" x="743" y="13" width="5.537" height="22.8146"/>
   <rect class="fil0 str8" x="765" y="13" width="5.537" height="22.8146"/>
   <rect class="fil0 str8" x="721" y="13" width="5.537" height="22.8146"/>
  </g>
  <g id="_747206944">
   <rect class="fil0 str8" x="842" y="13" width="5.537" height="22.8146"/>
   <rect class="fil0 str8" x="876" y="13" width="5.537" height="22.8146"/>
   <rect class="fil0 str8" x="898" y="13" width="5.537" height="22.8146"/>
   <rect class="fil0 str8" x="853" y="13" width="5.537" height="22.8146"/>
   <rect class="fil0 str8" x="887" y="13" width="5.537" height="22.8146"/>
   <rect class="fil0 str8" x="909" y="13" width="5.537" height="22.8146"/>
   <rect class="fil0 str8" x="864" y="13" width="5.537" height="22.8146"/>
   <rect class="fil0 str8" x="848" y="13" width="5.537" height="22.8146"/>
   <rect class="fil0 str8" x="881" y="13" width="5.537" height="22.8146"/>
   <rect class="fil0 str8" x="903" y="13" width="5.537" height="22.8146"/>
   <rect class="fil0 str8" x="859" y="13" width="5.537" height="22.8146"/>
   <rect class="fil0 str8" x="892" y="13" width="5.537" height="22.8146"/>
   <rect class="fil0 str8" x="914" y="13" width="5.537" height="22.8146"/>
   <rect class="fil0 str8" x="870" y="13" width="5.537" height="22.8146"/>
  </g>
  <g id="_705703264">
   <rect class="fil0 str8" x="365" y="411" width="5.537" height="26.4546"/>
   <rect class="fil0 str8" x="398" y="411" width="5.537" height="26.4546"/>
   <rect class="fil0 str8" x="376" y="411" width="5.537" height="26.4546"/>
   <rect class="fil0 str8" x="409" y="411" width="5.537" height="26.4546"/>
   <rect class="fil0 str8" x="387" y="411" width="5.537" height="26.4546"/>
   <rect class="fil0 str8" x="371" y="411" width="5.537" height="26.4546"/>
   <rect class="fil0 str8" x="404" y="411" width="5.537" height="26.4546"/>
   <rect class="fil0 str8" x="382" y="411" width="5.537" height="26.4546"/>
   <rect class="fil0 str8" x="415" y="411" width="5.537" height="26.4546"/>
   <rect class="fil0 str8" x="393" y="411" width="5.537" height="26.4546"/>
  </g>
  <g id="_705705376">
   <rect class="fil0 str8" transform="matrix(3.98522E-14 1 -1.50473 2.64845E-14 915.919 415.415)" width="5.537" height="26.4546"/>
   <rect class="fil0 str8" transform="matrix(3.98522E-14 1 -1.50473 2.64845E-14 915.919 426.489)" width="5.537" height="26.4546"/>
   <rect class="fil0 str8" transform="matrix(3.98522E-14 1 -1.50473 2.64845E-14 915.919 420.952)" width="5.537" height="26.4546"/>
   <rect class="fil0 str8" transform="matrix(3.98522E-14 1 -1.50473 2.64845E-14 915.919 432.026)" width="5.537" height="26.4546"/>
  </g>
  <polyline class="fil0 str5" points="882,329 681,329 638,5 974,5 930,329 911,329 "/>
  <line class="fil0 str1" x1="871" y1="395" x2="871" y2= "374" />
  <line class="fil0 str1" x1="694" y1="438" x2="694" y2= "331" />
  <line class="fil0 str1" x1="871" y1="359" x2="871" y2= "332" />
  <line class="fil0 str9" x1="698" y1="387" x2="868" y2= "387" />
  <g id="_705707392">
   <rect class="fil0 str8" x="1144" y="415" width="5.537" height="25.6901"/>
   <rect class="fil0 str8" x="1178" y="415" width="5.537" height="25.6901"/>
   <rect class="fil0 str8" x="1156" y="415" width="5.537" height="25.6901"/>
   <rect class="fil0 str8" x="1189" y="415" width="5.537" height="25.6901"/>
   <rect class="fil0 str8" x="1167" y="415" width="5.537" height="25.6901"/>
   <rect class="fil0 str8" x="1200" y="415" width="5.537" height="25.6901"/>
   <rect class="fil0 str8" x="1150" y="415" width="5.537" height="25.6901"/>
   <rect class="fil0 str8" x="1183" y="415" width="5.537" height="25.6901"/>
   <rect class="fil0 str8" x="1161" y="415" width="5.537" height="25.6901"/>
   <rect class="fil0 str8" x="1194" y="415" width="5.537" height="25.6901"/>
   <rect class="fil0 str8" x="1172" y="415" width="5.537" height="25.6901"/>
  </g>
  <g id="_705710584">
   <rect class="fil0 str8" transform="matrix(1 -0.150344 -0 0.971104 1144.46 386.349)" width="5.537" height="26.4546"/>
   <rect class="fil0 str8" transform="matrix(1 -0.150344 -0 0.971104 1177.68 381.355)" width="5.537" height="26.4546"/>
   <rect class="fil0 str8" transform="matrix(1 -0.150344 -0 0.971104 1155.54 384.684)" width="5.537" height="26.4546"/>
   <rect class="fil0 str8" transform="matrix(1 -0.150344 -0 0.971104 1188.76 379.69)" width="5.537" height="26.4546"/>
   <rect class="fil0 str8" transform="matrix(1 -0.150344 -0 0.971104 1166.61 383.02)" width="5.537" height="26.4546"/>
   <rect class="fil0 str8" transform="matrix(1 -0.150344 -0 0.971104 1199.83 378.025)" width="5.537" height="26.4546"/>
   <rect class="fil0 str8" transform="matrix(1 -0.150344 -0 0.971104 1150 385.517)" width="5.537" height="26.4546"/>
   <rect class="fil0 str8" transform="matrix(1 -0.150344 -0 0.971104 1183.22 380.522)" width="5.537" height="26.4546"/>
   <rect class="fil0 str8" transform="matrix(1 -0.150344 -0 0.971104 1161.07 383.852)" width="5.537" height="26.4546"/>
   <rect class="fil0 str8" transform="matrix(1 -0.150344 -0 0.971104 1194.3 378.857)" width="5.537" height="26.4546"/>
   <rect class="fil0 str8" transform="matrix(1 -0.150344 -0 0.971104 1172.15 382.187)" width="5.537" height="26.4546"/>
  </g>
  <polyline class="fil0 str4" points="696,40 776,40 776,8 "/>
  <polyline class="fil0 str4" points="916,40 836,40 836,8 "/>
 </g>
</svg>
